<svg xmlns="http://www.w3.org/2000/svg" viewBox="0 0 45 45" width="45" height="45">
  <g fill="none" fill-rule="evenodd" stroke="#ccc" stroke-width="1.5" stroke-linecap="round" stroke-linejoin="round">
    <path d="M22.5 11.63V6M20 8h5" stroke-linejoin="miter"/>
    <path d="M22.5 25s4.5-7.5 3-10.5c0 0-1-2.5-3-2.5s-3 2.5-3 2.5c-1.5 3 3 10.5 3 10.5" fill="#333" stroke-linecap="butt" stroke-linejoin="miter"/>
    <path d="M11.5 37c5.5 3.5 15.5 3.5 21 0v-7s9-4.5 6-10.5c-4 4-6.5 5.5-6.5 5.5s-.5 1.5-2.5 1.5-2.5-1.5-2.5-1.5S19 24.5 15 20.5c-3 6 6 10.5 6 10.5v7" fill="#333"/>
    <path d="M11.5 30c5.5-3 15.5-3 21 0m-21 3.5c5.5-3 15.5-3 21 0m-21 3.5c5.5-3 15.5-3 21 0" stroke-linecap="butt"/>
  </g>
</svg>