<svg xmlns="http://www.w3.org/2000/svg" viewBox="0 0 45 45" width="45" height="45">
  <g fill="#333" fill-rule="evenodd" stroke="#ccc" stroke-width="1.5" stroke-linecap="round" stroke-linejoin="round">
    <path d="M7.5 11.5l1.875 1.875m1.875-1.875L9.375 9.625m14.25 1.875l1.875 1.875m1.875-1.875l-1.875-1.875m14.25 1.875l1.875 1.875m1.875-1.875l-1.875-1.875M22.5 11.5l1.875 1.875m1.875-1.875L22.5 9.625m-7.5 1.875l1.875 1.875m1.875-1.875L15 9.625"/>
    <path d="M9 26c8.5-1.5 20-1.5 27 0l2-12-7 11V11l-5.5 13.5-3-13.5-3 13.5L14 11v14l-7-11 2 12z"/>
    <path d="M9 26c0 2 1.5 4 4.5 4 3 0 4.5-2 4.5-4 0 2 1.5 4 4.5 4 3 0 4.5-2 4.5-4 0 2 1.5 4 4.5 4 3 0 4.5-2 4.5-4"/>
    <path d="M9 26h27v3c0 2.5-9 2.5-27 0v-3z"/>
    <path d="M11.5 30c5.5-3 15.5-3 21 0m-21 3.5c5.5-3 15.5-3 21 0m-21 3.5c5.5-3 15.5-3 21 0"/>
  </g>
</svg>