<svg xmlns="http://www.w3.org/2000/svg" viewBox="0 0 45 45" width="45" height="45">
  <g fill="none" fill-rule="evenodd" stroke="#ccc" stroke-width="1.5" stroke-linecap="round" stroke-linejoin="round">
    <g fill="#333" stroke-linecap="butt">
      <path d="M9 36c3.39-.97 10.11.43 13.5 5 3.39-4.57 10.11-5.97 13.5-5"/>
      <path d="M15 32c2.5 2.5 12.5 2.5 15 0 .5-1.5 0-2 0-2 0-2.5-2.5-4-2.5-4 5.5-1.5 6-11.5-5-15.5-11 4-10.5 14-5 15.5 0 0-2.5 1.5-2.5 4 0 0-.5.5 0 2z"/>
      <path d="M25 8a2.5 2.5 0 1 1-5 0 2.5 2.5 0 1 1 5 0z"/>
    </g>
    <path d="M17.5 26h10M15 32h15m-7.5-14.5s-5-4-2.5-7.5" stroke="#ccc" stroke-linecap="round"/>
    <path d="M22.5 11.5c5 2.5 4 7.5 4 7.5" stroke-linejoin="miter"/>
  </g>
</svg>