<svg xmlns="http://www.w3.org/2000/svg" viewBox="0 0 45 45" width="45" height="45">
  <g fill="#fff" fill-rule="evenodd" stroke="#000" stroke-width="1.5" stroke-linecap="round" stroke-linejoin="round">
    <path d="M 22,10 C 32.5,11 38.5,18 38,39 L 15,39 C 15,30 25,32.5 23,18"/>
    <path d="M 24,18 C 24.3,14.5 27.5,11.5 29.5,11.5 C 31.5,11.5 34.5,13 35,16 C 38,16 38.5,19.5 37,21 C 34,23 30,26 30,26 C 30,26 27.5,24.5 26,22 C 23,24 20.5,25.5 19.5,25.5 C 18.5,25.5 18.5,22.5 18.5,22.5 C 18.5,22.5 20.5,21 22,19 C 23,18 24,18 24,18 Z"/>
    <path d="M 9.5 25.5 A 0.5 0.5 0 1 1 8.5,25.5 A 0.5 0.5 0 1 1 9.5 25.5 z"/>
    <path d="M 15 15.5 A 0.5 1.5 0 1 1 14,15.5 A 0.5 1.5 0 1 1 15 15.5 z" transform="matrix(0.866,0.5,-0.5,0.866,9.693,-5.173)"/>
  </g>
</svg>